{"title":"Lone Survivor 2013 BDRip 720p x264 Dual Audio [Hindi-Eng] YsB Te","uid":10411585,"size":1142203109,"categoryP":"video","categoryS":"hd___movies","magnet":"?xt=urn:btih:f8a180187678fe5df7dfb7f5a36ad9b19b384b49&amp;dn=Lone+Survivor+2013+BDRip+720p+x264+Dual+Audio+%5BHindi-Eng%5D+YsB+Te&amp;tr=udp%3A%2F%2Ftracker.openbittorrent.com%3A80&amp;tr=udp%3A%2F%2Fopen.demonii.com%3A1337&amp;tr=udp%3A%2F%2Ftracker.coppersurfer.tk%3A6969&amp;tr=udp%3A%2F%2Fexodus.desync.com%3A6969","seeders":1,"leechers":1,"uploader":"Dj_YsB","files":10,"time":1403544486,"description":"Lone Survivor 2013 BDRip 720p x264 Dual Audio [Hindi-Eng] YsB TeaM SSX\n &lt;a href=&quot;\nhttp://i.imgur.com/jATYiYU.jpg&quot; rel=&quot;nofollow&quot; target=&quot;_NEW&quot;&gt;\nhttp://i.imgur.com/jATYiYU.jpg&lt;/a&gt;\n\nInfo:\nGeneral\nComplete name                            : Lone Survivor 2013 BDRip 720p x264 Dual Audio [Hindi-Eng] YsB TeaM SSX.mkv\nFormat                                   : Matroska\nFile size                                : 1.05 GiB\nDuration                                 : 2h 1mn\nOverall bit rate                         : 1 235 Kbps\nMovie name                               : Lone Survivor 2013 BDRip 720p x264 Dual Audio [Hindi-Eng] YsB TeaM SSX\nDURATION                                 : 02:01:22.432000000\n\nVideo\nID                                       : 1\nFormat                                   : AVC\nDuration                                 : 2h 1mn\nBit rate                                 : 850 Kbps\nWidth                                    : 1 280 pixels\nHeight                                   : 528 pixels\nDisplay aspect ratio                     : 2.40:1\nFrame rate                               : 23.976 fps\nStream size                              : 717 MiB (67%)\nTitle                                    : YsB TeaM SSX\n\nAudio #1\nID                                       : 2\nFormat                                   : AC-3\nDuration                                 : 2h 1mn\nBit rate                                 : 192 Kbps\nChannel(s)                               : 2 channels\nSampling rate                            : 48.0 KHz\nStream size                              : 167 MiB (16%)\nTitle                                    : YsB TeaM SSX\nLanguage                                 : Hindi\n\nAudio #2\nID                                       : 3\nFormat                                   : AC-3\nDuration                                 : 2h 1mn\nBit rate                                 : 192 Kbps\nChannel(s)                               : 6 channels\nSampling rate                            : 48.0 KHz\nStream size                              : 167 MiB (16%)\nTitle                                    : YsB TeaM SSX\nLanguage                                 : English\n\nScreenShot: &lt;a href=&quot;\nhttp://i.imgur.com/FdbbcLX.jpg&quot; rel=&quot;nofollow&quot; target=&quot;_NEW&quot;&gt;\nhttp://i.imgur.com/FdbbcLX.jpg&lt;/a&gt; &lt;a href=&quot;\nhttp://i.imgur.com/9jHn4vv.jpg&quot; rel=&quot;nofollow&quot; target=&quot;_NEW&quot;&gt;\nhttp://i.imgur.com/9jHn4vv.jpg&lt;/a&gt; &lt;a href=&quot;\nhttp://i.imgur.com/cMHTc3Q.jpg&quot; rel=&quot;nofollow&quot; target=&quot;_NEW&quot;&gt;\nhttp://i.imgur.com/cMHTc3Q.jpg&lt;/a&gt;\n\nThanks\nGPsoft, HDDR...\nTeaM SSX - Maverick Dude, Hari, Hemkumar, Sajan...","torrent":{"xt":"urn:btih:f8a180187678fe5df7dfb7f5a36ad9b19b384b49","amp;dn":"Lone+Survivor+2013+BDRip+720p+x264+Dual+Audio+%5BHindi-Eng%5D+YsB+Te","amp;tr":["udp%3A%2F%2Ftracker.openbittorrent.com%3A80","udp%3A%2F%2Fopen.demonii.com%3A1337","udp%3A%2F%2Ftracker.coppersurfer.tk%3A6969","udp%3A%2F%2Fexodus.desync.com%3A6969"],"infoHash":"f8a180187678fe5df7dfb7f5a36ad9b19b384b49","infoHashBuffer":{"type":"Buffer","data":[248,161,128,24,118,120,254,93,247,223,183,245,163,106,217,177,155,56,75,73]},"announce":[],"urlList":[]}}